# xmcd CD Database Entry
#
# Track frame offsets:
# 150
# 10972
# 26272
# 39167
# 53225
# 62430
# 78427
# 91342
# 109142
# 127027
# 140897
# 156670
# 169735
# 184270
#
# Disc length: 2717 seconds
#
# Revision: 4
# Processed by: cddbd v1.4PL0 Copyright (c) Steve Scherf et al.
# Submitted via: tcd 2.0b
#
DISCID=ba0a9b0e
DTITLE=Delbert McClinton - Genuine Rhythm and the Blues
DYEAR=2000
DGENRE=Blues
TTITLE0=Lipstick, Powder and Paint
TTITLE1=Lovey Dovey
TTITLE2=Pledging My Love
TTITLE3=Before You Accuse Me (Take a Look at Yourself)
TTITLE4=Blue Monday
TTITLE5=In the Jailhouse Now
TTITLE6=Let Love Come Between Us
TTITLE7=Turn On Your Love Light
TTITLE8=Have Mercy
TTITLE9=Just a Little Bit
TTITLE10=Corinna
TTITLE11=I'm Talking About You
TTITLE12=Spoonful
TTITLE13=A Mess of Blues
EXTD=LABEL =Universal Music Enterprises\nID =314541335-2\nUPC =
EXTD=731454-133524\nCOPYRIGHT =2000
EXTT0=
EXTT1=
EXTT2=
EXTT3=
EXTT4=
EXTT5=
EXTT6=
EXTT7=
EXTT8=
EXTT9=
EXTT10=
EXTT11=
EXTT12=
EXTT13=
PLAYORDER=
